<svg width="20" height="20" viewBox="0 0 20 20" fill="none" xmlns="http://www.w3.org/2000/svg">
<path d="M19.6643 9.03817L16.6332 5.78305V2.02285C16.6332 1.34295 16.1202 0.791945 15.4861 0.791945C14.8535 0.791945 14.3405 1.34295 14.3405 2.02285V3.32095L12.0836 0.897169C10.9678 -0.300479 9.02771 -0.298354 7.91443 0.899336L0.335548 9.03817C-0.111849 9.51959 -0.111849 10.2986 0.335548 10.7792C0.783148 11.2605 1.50992 11.2605 1.95736 10.7792L9.53551 2.64018C9.78238 2.37645 10.2175 2.37645 10.4631 2.6394L18.0425 10.7792C18.2673 11.0199 18.5603 11.1396 18.8532 11.1396C19.1468 11.1396 19.4403 11.0198 19.6643 10.7792C20.1119 10.2986 20.1119 9.51963 19.6643 9.03817Z" fill="black"/>
<path d="M10.3981 4.97672C10.1779 4.74039 9.82143 4.74039 9.60189 4.97672L2.93549 12.1337C2.83024 12.2467 2.77057 12.4009 2.77057 12.5619V17.7819C2.77057 19.0068 3.6954 20 4.83598 20H8.13652V14.5108H11.8628V20H15.1634C16.3039 20 17.2287 19.0068 17.2287 17.782V12.5619C17.2287 12.4009 17.1696 12.2467 17.0638 12.1337L10.3981 4.97672Z" fill="black"/>
</svg>
